<svg id="Background" xmlns="http://www.w3.org/2000/svg" viewBox="0 0 20 20"><defs><style>.cls-1{fill:#ffcd00;}</style></defs><title>planting_corn</title><path class="cls-1" d="M971.28-86.73a10,10,0,0,0-10,10,10,10,0,0,0,10,10,10,10,0,0,0,10-10A10,10,0,0,0,971.28-86.73Zm4.35,10.81a0.5,0.5,0,0,0-.35.14L971.39-72l-3.67-3.76a0.5,0.5,0,0,0-.35-0.15h-5c0-.27,0-0.54,0-0.81a9,9,0,0,1,9-9,9,9,0,0,1,9,9c0,0.27,0,.54,0,0.81h-4.61Z" transform="translate(-961.28 86.73)"/><path class="cls-1" d="M969-78.2a2.15,2.15,0,0,0,0,1.57,2.15,2.15,0,0,0,1.28-.93,2.15,2.15,0,0,0,0-1.57A2.14,2.14,0,0,0,969-78.2Z" transform="translate(-961.28 86.73)"/><path class="cls-1" d="M971.49-77.63a2.16,2.16,0,0,0-.38,1.53l0,0.08a2.22,2.22,0,0,0,1,1.1,2.45,2.45,0,0,0,.41-1.1,1.32,1.32,0,0,0,0-.43A2.15,2.15,0,0,0,971.49-77.63Z" transform="translate(-961.28 86.73)"/><path class="cls-1" d="M972.6-80a2.16,2.16,0,0,0-.22,1.56,2.16,2.16,0,0,0,1.16,1.07,2.16,2.16,0,0,0,.22-1.56A2.16,2.16,0,0,0,972.6-80Z" transform="translate(-961.28 86.73)"/><path class="cls-1" d="M972.11-81.11a2.16,2.16,0,0,0-.28-1.55,2.15,2.15,0,0,0-1.11,1.12A2.14,2.14,0,0,0,971-80,2.15,2.15,0,0,0,972.11-81.11Z" transform="translate(-961.28 86.73)"/></svg>