<svg id="Background" xmlns="http://www.w3.org/2000/svg" viewBox="0 0 20 20"><defs><style>.cls-1{fill:#ffcd00;}</style></defs><title>spraying_corn</title><path class="cls-1" d="M1001.07,158.56a10,10,0,1,0,10,10A10,10,0,0,0,1001.07,158.56Zm0,19a9,9,0,1,1,9-9A9,9,0,0,1,1001.07,177.56Z" transform="translate(-991.07 -158.56)"/><circle class="cls-1" cx="10" cy="14.74" r="0.75"/><circle class="cls-1" cx="10" cy="12.24" r="0.75"/><circle class="cls-1" cx="6.75" cy="12.24" r="0.75"/><circle class="cls-1" cx="7.5" cy="9.75" r="0.75"/><circle class="cls-1" cx="13.25" cy="12.24" r="0.75"/><circle class="cls-1" cx="10" cy="9.75" r="0.75"/><circle class="cls-1" cx="12.5" cy="9.75" r="0.75"/><polygon class="cls-1" points="7.84 4.3 6.07 7.83 14.01 7.83 12.25 4.3 7.84 4.3"/></svg>