<svg id="Background" xmlns="http://www.w3.org/2000/svg" viewBox="0 0 20 20"><defs><style>.cls-1{fill:#ffcd00;}</style></defs><title>spreading_corn</title><path class="cls-1" d="M964,158.56a10,10,0,1,0,10,10A10,10,0,0,0,964,158.56Zm0,19a9,9,0,1,1,8.41-12.17,4,4,0,1,0,0,6.34A9,9,0,0,1,964,177.56Z" transform="translate(-954 -158.56)"/><circle class="cls-1" cx="6.5" cy="10.19" r="0.75"/><circle class="cls-1" cx="9.5" cy="3.56" r="0.75"/><circle class="cls-1" cx="11" cy="5.69" r="0.75"/><circle class="cls-1" cx="4" cy="10.19" r="0.75"/><circle class="cls-1" cx="9.5" cy="16.44" r="0.75"/><circle class="cls-1" cx="11" cy="14.69" r="0.75"/><circle class="cls-1" cx="9" cy="10.19" r="0.75"/><circle class="cls-1" cx="6.5" cy="13.44" r="0.75"/><circle class="cls-1" cx="9" cy="12.69" r="0.75"/><circle class="cls-1" cx="6.5" cy="6.56" r="0.75"/><circle class="cls-1" cx="9" cy="7.69" r="0.75"/></svg>